<svg xmlns="http://www.w3.org/2000/svg" xmlns:xlink="http://www.w3.org/1999/xlink" width="500" zoomAndPan="magnify" viewBox="0 0 375 74.999997" height="100" preserveAspectRatio="xMidYMid meet" version="1.0"><defs><g/><clipPath id="5652b82e6b"><path d="M 20 4.226562 L 39 4.226562 L 39 14 L 20 14 Z M 20 4.226562 " clip-rule="nonzero"/></clipPath><clipPath id="3d1e4ae45f"><path d="M 10 36 L 50 36 L 50 69.085938 L 10 69.085938 Z M 10 36 " clip-rule="nonzero"/></clipPath><clipPath id="72768777ce"><path d="M 3 12 L 68.273438 12 L 68.273438 48 L 3 48 Z M 3 12 " clip-rule="nonzero"/></clipPath></defs><g clip-path="url(#5652b82e6b)"><path fill="#ffffff" d="M 29.890625 4.289062 C 32.125 4.289062 34.355469 4.273438 36.585938 4.296875 C 38.195312 4.3125 38.75 4.855469 38.757812 6.433594 C 38.777344 9.914062 38.714844 9.027344 38.800781 12.503906 C 38.835938 13.855469 38.0625 13.789062 37.117188 13.804688 C 36.140625 13.824219 35.40625 13.804688 35.453125 12.488281 C 35.542969 9.917969 35.441406 11.703125 35.5 9.128906 C 35.527344 7.976562 35.117188 7.488281 33.894531 7.511719 C 31.199219 7.5625 28.5 7.539062 25.804688 7.511719 C 24.699219 7.503906 24.222656 7.917969 24.246094 9.046875 C 24.304688 11.617188 24.191406 9.832031 24.292969 12.40625 C 24.351562 13.769531 23.636719 13.820312 22.589844 13.8125 C 21.605469 13.804688 20.910156 13.792969 20.941406 12.480469 C 21.023438 9.007812 20.964844 9.890625 20.980469 6.414062 C 20.988281 4.867188 21.582031 4.3125 23.191406 4.296875 C 25.425781 4.28125 27.65625 4.296875 29.886719 4.296875 L 29.890625 4.292969 Z M 29.890625 4.289062 " fill-opacity="1" fill-rule="nonzero"/></g><path fill="#ffffff" d="M 11.117188 42.671875 C 15.878906 43.792969 21.085938 43.125 25.859375 42.011719 C 34.914062 39.820312 42.566406 36.878906 49.691406 31.820312 L 49.691406 21.328125 C 49.6875 16.976562 47.476562 14.808594 43.035156 14.808594 C 34.289062 14.800781 25.550781 14.800781 16.804688 14.808594 C 12.328125 14.808594 10.09375 16.914062 10.082031 21.261719 C 10.066406 28.296875 10.0625 35.335938 10.0625 42.375 C 10.421875 42.484375 10.777344 42.582031 11.117188 42.675781 Z M 11.117188 42.671875 " fill-opacity="1" fill-rule="nonzero"/><g clip-path="url(#3d1e4ae45f)"><path fill="#ffffff" d="M 49.691406 39.804688 L 49.691406 36.171875 C 43.40625 43.417969 34.117188 47.523438 24.613281 48.964844 C 19.773438 49.695312 14.785156 49.71875 10.0625 48.011719 L 10.0625 56.542969 C 10.0625 56.992188 10.078125 57.445312 10.132812 57.894531 C 10.445312 60.625 12.128906 62.503906 14.898438 63.015625 C 15.871094 63.195312 16.117188 63.648438 16.121094 64.46875 C 16.125 65.234375 16.09375 66.015625 16.234375 66.761719 C 16.496094 68.15625 17.589844 69.003906 18.96875 69.015625 C 20.339844 69.027344 21.472656 68.183594 21.757812 66.820312 C 21.90625 66.125 21.945312 65.382812 21.894531 64.664062 C 21.808594 63.492188 22.273438 63.078125 23.496094 63.097656 C 27.261719 63.160156 31.03125 63.097656 34.796875 63.125 C 37.890625 63.148438 37.96875 62.625 37.898438 65.941406 C 37.898438 66.078125 37.90625 66.214844 37.921875 66.347656 C 38.117188 67.980469 39.304688 69.046875 40.871094 69.015625 C 42.34375 68.980469 43.488281 67.882812 43.636719 66.296875 C 43.703125 65.578125 43.585938 64.839844 43.726562 64.140625 C 43.808594 63.757812 44.1875 63.234375 44.542969 63.128906 C 48.398438 62 49.695312 60.355469 49.695312 56.472656 C 49.695312 50.917969 49.695312 45.359375 49.695312 39.804688 Z M 49.691406 39.804688 " fill-opacity="1" fill-rule="nonzero"/></g><g clip-path="url(#72768777ce)"><path fill="#c5edfa" d="M 68.089844 26.550781 C 67.308594 24.027344 66.523438 21.511719 65.738281 18.988281 C 65.695312 18.863281 65.714844 18.769531 65.796875 18.664062 C 66.425781 17.824219 66.988281 16.949219 67.402344 15.984375 C 67.691406 15.308594 67.925781 14.617188 67.855469 13.867188 C 67.765625 12.914062 66.988281 12.359375 66.019531 12.542969 C 65.53125 12.636719 65.101562 12.851562 64.695312 13.113281 C 63.613281 13.8125 62.746094 14.730469 61.960938 15.714844 C 61.808594 15.902344 61.664062 15.964844 61.425781 15.964844 C 58.753906 15.941406 56.082031 15.929688 53.414062 15.914062 C 52.890625 15.914062 52.476562 16.191406 52.3125 16.65625 C 52.109375 17.242188 52.429688 17.808594 53.097656 18.050781 C 54.867188 18.675781 56.636719 19.296875 58.40625 19.921875 C 58.570312 19.980469 58.730469 20.042969 58.90625 20.105469 C 58.875 20.164062 58.855469 20.199219 58.839844 20.226562 C 58.269531 21.285156 57.691406 22.335938 57.140625 23.398438 C 57.019531 23.640625 56.878906 23.710938 56.621094 23.734375 C 55.628906 23.808594 54.636719 23.90625 53.648438 24.011719 C 53.3125 24.046875 53.101562 24.265625 53.066406 24.5625 C 53.03125 24.863281 53.199219 25.117188 53.519531 25.238281 C 53.703125 25.304688 53.882812 25.371094 54.066406 25.425781 C 54.734375 25.632812 55.40625 25.839844 56.097656 26.054688 C 55.996094 26.265625 56 26.449219 56.074219 26.609375 C 55.75 26.894531 55.433594 27.183594 55.113281 27.464844 C 46.417969 35.316406 37.253906 39.25 25.867188 42.007812 C 21.097656 43.121094 15.882812 43.789062 11.121094 42.667969 C 9.410156 42.195312 7.320312 41.628906 6.21875 40.226562 C 4.636719 37.761719 8.5625 33.609375 10.066406 31.597656 C 2.199219 36.28125 0.00390625 42.386719 9.914062 46.28125 C 14.683594 48.039062 19.726562 48.023438 24.617188 47.28125 C 37.390625 45.125 49.363281 39.433594 56.285156 28.410156 C 56.5625 27.980469 56.828125 27.542969 57.085938 27.097656 C 57.171875 27.066406 57.257812 27.019531 57.347656 26.949219 C 57.40625 27.035156 57.457031 27.105469 57.503906 27.171875 C 57.957031 27.824219 58.410156 28.476562 58.878906 29.117188 C 59.160156 29.503906 59.722656 29.496094 59.945312 29.109375 C 60.035156 28.953125 60.0625 28.730469 60.03125 28.554688 C 59.851562 27.578125 59.652344 26.609375 59.449219 25.636719 C 59.417969 25.488281 59.453125 25.40625 59.5625 25.308594 C 60 24.925781 60.429688 24.539062 60.851562 24.144531 C 61.375 23.65625 61.886719 23.15625 62.417969 22.652344 C 62.46875 22.71875 62.523438 22.777344 62.574219 22.84375 C 63.761719 24.402344 64.949219 25.96875 66.140625 27.523438 C 66.503906 28 67.082031 28.128906 67.578125 27.871094 C 68.070312 27.621094 68.273438 27.09375 68.101562 26.542969 L 68.09375 26.542969 Z M 68.089844 26.550781 " fill-opacity="1" fill-rule="nonzero"/></g><path stroke-linecap="butt" transform="matrix(0.503149, 0, 0, 0.503149, 93.101498, 14.558898)" fill="none" stroke-linejoin="miter" d="M 56.565783 43.002025 L 44.726279 43.002025 L 36.3804 21.023248 L 28.026756 43.002025 L 16.187252 43.002025 L -0.0852721 9.183744 L 14.300695 9.183744 L 22.794084 30.66565 L 31.893034 9.183744 L 40.860002 9.183744 L 49.958952 30.66565 L 58.45234 9.183744 L 72.838308 9.183744 Z M 56.565783 43.002025 " stroke="#ffffff" stroke-width="2.80774" stroke-opacity="1" stroke-miterlimit="4"/><path stroke-linecap="butt" transform="matrix(0.503149, 0, 0, 0.503149, 132.114225, 14.558898)" fill="none" stroke-linejoin="miter" d="M 56.400744 43.002025 L 42.014777 43.002025 L 38.831697 37.458808 L 17.489536 37.458808 L 14.298693 43.002025 L -0.0872748 43.002025 L 21.565431 9.183744 L 34.748039 9.183744 Z M 34.04155 29.081874 L 28.172262 18.826146 L 22.271919 29.081874 Z M 34.04155 29.081874 " stroke="#ffffff" stroke-width="2.80774" stroke-opacity="1" stroke-miterlimit="4"/><path stroke-linecap="butt" transform="matrix(0.503149, 0, 0, 0.503149, 162.856708, 14.558898)" fill="none" stroke-linejoin="miter" d="M 53.543149 43.002025 L 36.657299 43.002025 L 17.53553 20.099378 L 17.53553 43.002025 L 3.335889 43.002025 L 3.335889 9.160453 L 20.221739 9.160453 L 39.351272 31.938882 L 39.351272 9.160453 L 53.543149 9.160453 Z M 53.543149 43.002025 " stroke="#ffffff" stroke-width="2.80774" stroke-opacity="1" stroke-miterlimit="4"/><path stroke-linecap="butt" transform="matrix(0.503149, 0, 0, 0.503149, 193.883956, 14.558898)" fill="none" stroke-linejoin="miter" d="M 25.974764 43.002025 L 3.33608 43.002025 L 3.33608 9.160453 L 25.974764 9.160453 C 35.236749 9.160453 41.897926 10.456976 45.95053 13.050021 C 49.219009 15.138432 51.082275 17.987677 51.540328 21.582228 C 51.742182 23.142713 51.850873 24.641089 51.850873 26.092884 C 51.850873 27.521388 51.749946 29.019765 51.555856 30.58025 C 51.354002 32.148499 50.83384 33.662403 49.987607 35.137489 C 49.13361 36.604811 47.790505 37.932388 45.942766 39.112457 C 44.095027 40.284762 41.564091 41.231922 38.349957 41.93841 C 35.128059 42.644899 31.005582 43.002025 25.974764 43.002025 Z M 24.631659 34.625091 C 31.851816 34.625091 35.927711 32.800643 36.874871 29.15951 C 37.123306 28.134714 37.247524 27.109917 37.247524 26.092884 C 37.247524 25.052561 37.123306 24.027764 36.859344 23.010732 C 36.603145 22.001462 36.051928 21.077593 35.213459 20.25465 C 34.367225 19.423944 33.10952 18.764037 31.424817 18.27493 C 29.740114 17.778059 27.480904 17.529624 24.631659 17.529624 L 17.535721 17.529624 L 17.535721 34.625091 Z M 24.631659 34.625091 " stroke="#ffffff" stroke-width="2.80774" stroke-opacity="1" stroke-miterlimit="4"/><path stroke-linecap="butt" transform="matrix(0.503149, 0, 0, 0.503149, 223.107661, 14.558898)" fill="none" stroke-linejoin="miter" d="M 44.092942 43.002025 L 3.333994 43.002025 L 3.333994 9.160453 L 42.229676 9.160453 L 42.229676 17.529624 L 17.533635 17.529624 L 17.533635 22.832169 L 38.402216 22.832169 L 38.402216 29.345837 L 17.533635 29.345837 L 17.533635 34.625091 L 44.092942 34.625091 Z M 44.092942 43.002025 " stroke="#ffffff" stroke-width="2.80774" stroke-opacity="1" stroke-miterlimit="4"/><path stroke-linecap="butt" transform="matrix(0.503149, 0, 0, 0.503149, 248.427614, 14.558898)" fill="none" stroke-linejoin="miter" d="M 49.535947 43.002025 L 36.120431 43.002025 C 35.507106 42.148028 35.072344 41.068886 34.823908 39.749073 C 34.598764 38.724276 34.272692 37.722771 33.830166 36.736792 C 33.387641 35.758578 32.634571 34.935635 31.555429 34.283492 C 30.476287 33.631349 28.876984 33.281986 26.757519 33.235405 L 17.534351 33.235405 L 17.534351 43.002025 L 3.33471 43.002025 L 3.33471 9.160453 L 26.423683 9.160453 C 31.943609 9.160453 36.399921 9.571924 39.784854 10.394867 C 43.169788 11.217809 45.646379 12.514332 47.199101 14.284435 C 48.759587 16.054538 49.535947 18.36033 49.535947 21.209574 C 49.535947 23.585239 49.000258 25.580486 47.921117 27.195317 C 46.841975 28.817911 45.141745 30.098907 42.812662 31.046067 C 45.064109 31.969936 46.523667 33.080132 47.191338 34.376655 C 47.859008 35.680942 48.270479 37.101682 48.425751 38.662167 C 48.588787 40.04409 48.953677 41.488121 49.535947 43.002025 Z M 17.534351 24.889525 L 25.647322 24.866234 C 27.914296 24.866234 29.692163 24.765307 30.996449 24.55569 C 32.308499 24.353836 33.271187 24.074346 33.892275 23.71722 C 34.513364 23.367858 34.909308 22.971914 35.080107 22.537151 C 35.250907 22.110153 35.336307 21.667627 35.336307 21.209574 C 35.336307 20.751521 35.250907 20.301232 35.080107 19.86647 C 34.909308 19.423944 34.513364 19.028 33.892275 18.670874 C 33.271187 18.321512 32.308499 18.042022 30.996449 17.832404 C 29.692163 17.630551 27.914296 17.529624 25.647322 17.529624 L 17.534351 17.529624 Z M 17.534351 24.889525 " stroke="#ffffff" stroke-width="2.80774" stroke-opacity="1" stroke-miterlimit="4"/><path stroke-linecap="butt" transform="matrix(0.503149, 0, 0, 0.503149, 276.48851, 14.558898)" fill="none" stroke-linejoin="miter" d="M 42.839141 43.002025 L 3.337898 43.002025 L 3.337898 9.160453 L 17.529775 9.160453 L 17.529775 34.625091 L 42.839141 34.625091 Z M 42.839141 43.002025 " stroke="#ffffff" stroke-width="2.80774" stroke-opacity="1" stroke-miterlimit="4"/><path stroke-linecap="butt" transform="matrix(0.503149, 0, 0, 0.503149, 300.704983, 14.558898)" fill="none" stroke-linejoin="miter" d="M 23.357007 43.731804 C 15.104291 43.731804 9.297111 42.016046 5.927705 38.592295 C 3.101751 35.711996 1.688774 31.550702 1.688774 26.116175 L 1.688774 9.183744 L 15.880651 9.183744 L 15.880651 26.116175 C 15.880651 28.468549 16.284359 30.331815 17.084011 31.705974 C 18.233025 33.670167 20.321436 34.648382 23.357007 34.648382 C 26.423633 34.648382 28.519807 33.670167 29.653294 31.705974 C 30.460709 30.285233 30.856653 28.421967 30.856653 26.116175 L 30.856653 9.183744 L 45.056294 9.183744 L 45.056294 26.302502 C 45.056294 31.620574 43.651081 35.711996 40.832891 38.592295 C 37.455721 42.016046 31.625251 43.731804 23.357007 43.731804 Z M 23.357007 43.731804 " stroke="#ffffff" stroke-width="2.80774" stroke-opacity="1" stroke-miterlimit="4"/><path stroke-linecap="butt" transform="matrix(0.503149, 0, 0, 0.503149, 326.630078, 14.558898)" fill="none" stroke-linejoin="miter" d="M 21.922102 43.731804 C 17.341573 43.731804 13.661622 43.242697 10.858959 42.256718 C 8.06406 41.27074 5.929068 39.919872 4.469509 38.204114 C 3.002187 36.480593 2.023972 34.493109 1.519338 32.249426 L 16.588503 32.249426 C 17.706463 33.84873 19.484329 34.648382 21.922102 34.648382 C 24.359875 34.648382 26.129978 33.84873 27.247938 32.249426 C 27.341101 32.086391 27.395447 31.946646 27.395447 31.822428 C 27.395447 31.395429 26.828703 31.077121 25.70298 30.867504 C 24.58502 30.650123 22.900317 30.494851 20.672161 30.38616 C 17.853971 30.254179 14.9038 29.959162 11.80612 29.485582 C 4.896508 28.414203 1.449465 25.642595 1.449465 21.162993 C 1.449465 20.782576 1.472756 20.386632 1.519338 19.959633 C 2.023972 17.708187 3.002187 15.728466 4.469509 14.004945 C 5.929068 12.281424 8.06406 10.930556 10.858959 9.944578 C 13.661622 8.966363 17.341573 8.469492 21.922102 8.469492 C 26.494868 8.469492 30.182582 8.966363 32.977481 9.944578 C 35.780144 10.930556 37.907373 12.281424 39.374695 14.004945 C 40.834254 15.728466 41.820232 17.708187 42.317103 19.959633 L 27.247938 19.959633 C 26.129978 18.352566 24.359875 17.552914 21.922102 17.552914 C 19.484329 17.552914 17.706463 18.352566 16.588503 19.959633 C 16.510867 20.083851 16.472049 20.200305 16.472049 20.308996 C 16.472049 20.689412 17.007738 20.968902 18.086879 21.147465 C 19.166021 21.333792 20.749797 21.481301 22.853735 21.605518 C 24.94991 21.7375 27.185829 21.939354 29.561494 22.218843 C 31.937158 22.506097 34.15755 22.995204 36.22267 23.693929 C 38.28779 24.392654 39.910384 25.432978 41.067162 26.799373 C 41.983268 27.84746 42.441321 29.190564 42.441321 30.805395 C 42.441321 31.263448 42.402503 31.744792 42.317103 32.249426 C 41.820232 34.493109 40.834254 36.480593 39.374695 38.204114 C 37.907373 39.919872 35.780144 41.27074 32.977481 42.256718 C 30.182582 43.242697 26.494868 43.731804 21.922102 43.731804 Z M 21.922102 43.731804 " stroke="#ffffff" stroke-width="2.80774" stroke-opacity="1" stroke-miterlimit="4"/><path stroke-linecap="butt" transform="matrix(0.503149, 0, 0, 0.503149, 351.119422, 14.558898)" fill="none" stroke-linejoin="miter" d="M 28.425895 43.002025 L 14.234018 43.002025 L 14.234018 17.529624 L 0.973774 17.529624 L 0.973774 9.160453 L 41.686139 9.160453 L 41.686139 17.529624 L 28.425895 17.529624 Z M 28.425895 43.002025 " stroke="#ffffff" stroke-width="2.80774" stroke-opacity="1" stroke-miterlimit="4"/><g fill="#ffffff" fill-opacity="1"><g transform="translate(181.98761, 57.558622)"><g><path d="M 2.503906 0 L 4.039062 0 C 3.941406 -0.320312 3.894531 -0.800781 3.894531 -1.34375 L 3.894531 -4.507812 L 5.277344 -4.507812 C 5.796875 -4.507812 6.101562 -4.460938 6.363281 -4.375 L 6.117188 -5.597656 L 0.414062 -5.597656 L 0.167969 -4.375 C 0.441406 -4.46875 0.734375 -4.507812 1.253906 -4.507812 L 2.648438 -4.507812 L 2.648438 -1.34375 C 2.648438 -0.800781 2.589844 -0.320312 2.503906 0 Z M 2.503906 0 "/></g></g></g><g fill="#ffffff" fill-opacity="1"><g transform="translate(189.154256, 57.558622)"><g><path d="M 6.429688 0.121094 C 6.835938 0.121094 7.21875 -0.046875 7.402344 -0.296875 L 7.347656 -1.679688 C 7.203125 -1.335938 7.011719 -1.121094 6.582031 -1.121094 C 5.699219 -1.121094 5.894531 -2.535156 4.214844 -2.535156 L 4.148438 -2.535156 L 4.148438 -2.597656 L 4.636719 -2.597656 C 5.925781 -2.597656 6.796875 -3.230469 6.796875 -4.132812 C 6.796875 -5.078125 5.867188 -5.597656 4.527344 -5.597656 L 0.65625 -5.597656 C 0.742188 -5.285156 0.800781 -4.796875 0.800781 -4.253906 L 0.800781 -1.34375 C 0.800781 -0.800781 0.742188 -0.320312 0.65625 0 L 2.191406 0 C 2.09375 -0.320312 2.046875 -0.75 2.046875 -1.289062 L 2.046875 -2.117188 C 2.230469 -2.175781 2.863281 -2.191406 3.09375 -2.191406 C 5.390625 -2.191406 4.339844 0.121094 6.429688 0.121094 Z M 2.046875 -3.078125 L 2.046875 -4.515625 L 4.398438 -4.515625 C 5.085938 -4.515625 5.550781 -4.246094 5.550781 -3.796875 C 5.550781 -3.335938 5.078125 -3.078125 4.339844 -3.078125 Z M 2.046875 -3.078125 "/></g></g></g><g fill="#ffffff" fill-opacity="1"><g transform="translate(197.287552, 57.558622)"><g><path d="M 0.648438 0 L 2.183594 0 C 2.09375 -0.3125 2.039062 -0.800781 2.039062 -1.34375 L 2.039062 -4.253906 C 2.039062 -4.796875 2.09375 -5.285156 2.183594 -5.597656 L 0.648438 -5.597656 C 0.734375 -5.285156 0.792969 -4.796875 0.792969 -4.253906 L 0.792969 -1.34375 C 0.792969 -0.800781 0.742188 -0.3125 0.648438 0 Z M 0.648438 0 "/></g></g></g><g fill="#ffffff" fill-opacity="1"><g transform="translate(200.771315, 57.558622)"><g><path d="M 0.648438 0 L 2.183594 0 C 2.085938 -0.3125 2.039062 -0.785156 2.039062 -1.320312 L 2.046875 -3.023438 L 2.109375 -3.023438 C 2.3125 -1.925781 3.253906 -1.429688 4.535156 -1.429688 C 5.859375 -1.429688 6.84375 -2.214844 6.84375 -3.550781 C 6.84375 -4.871094 5.734375 -5.597656 4.230469 -5.597656 L 0.648438 -5.597656 C 0.734375 -5.285156 0.800781 -4.796875 0.800781 -4.253906 L 0.800781 -1.34375 C 0.800781 -0.800781 0.742188 -0.3125 0.648438 0 Z M 4.0625 -2.445312 C 3.054688 -2.445312 2.054688 -3.015625 2.046875 -3.988281 L 2.046875 -4.535156 C 2.679688 -4.597656 3.316406 -4.605469 4.039062 -4.605469 C 5.027344 -4.605469 5.597656 -4.207031 5.597656 -3.550781 C 5.597656 -2.863281 4.878906 -2.445312 4.0625 -2.445312 Z M 4.0625 -2.445312 "/></g></g></g><g fill="#ffffff" fill-opacity="1"><g transform="translate(208.473217, 57.558622)"><g/></g></g><g fill="#ffffff" fill-opacity="1"><g transform="translate(211.365805, 57.558622)"><g><path d="M 3.628906 0.0976562 C 4.382812 0.0976562 5.492188 -0.015625 6.085938 -0.167969 L 6.085938 -2.460938 L 6.941406 -2.460938 L 6.941406 -3.382812 L 6.085938 -3.382812 L 6.085938 -3.847656 L 4.902344 -3.847656 L 4.902344 -3.390625 L 3.652344 -3.390625 C 2.671875 -3.390625 2 -3.667969 2 -4.132812 C 2 -4.621094 2.726562 -4.851562 3.789062 -4.851562 C 4.269531 -4.851562 4.933594 -4.78125 5.300781 -4.628906 L 5.300781 -5.539062 C 4.949219 -5.636719 4.238281 -5.726562 3.621094 -5.726562 C 1.957031 -5.726562 0.816406 -5.222656 0.816406 -4.253906 C 0.816406 -3.582031 1.597656 -3.085938 2.535156 -2.980469 L 2.535156 -2.902344 C 1.4375 -2.8125 0.566406 -2.335938 0.566406 -1.527344 C 0.566406 -0.464844 1.917969 0.0976562 3.628906 0.0976562 Z M 3.78125 -0.816406 C 2.582031 -0.816406 1.75 -1.128906 1.75 -1.640625 C 1.75 -2.144531 2.421875 -2.453125 3.492188 -2.460938 L 4.902344 -2.460938 L 4.902344 -0.925781 C 4.574219 -0.855469 4.148438 -0.816406 3.78125 -0.816406 Z M 3.78125 -0.816406 "/></g></g></g><g fill="#ffffff" fill-opacity="1"><g transform="translate(219.37128, 57.558622)"><g/></g></g><g fill="#ffffff" fill-opacity="1"><g transform="translate(222.263869, 57.558622)"><g><path d="M -0.0976562 0 L 1.472656 0 C 1.503906 -0.207031 1.640625 -0.472656 1.832031 -0.878906 L 2.0625 -1.3125 L 5.238281 -1.3125 L 5.46875 -0.886719 C 5.699219 -0.472656 5.796875 -0.214844 5.828125 0 L 7.394531 0 C 7.179688 -0.3125 6.867188 -0.824219 6.605469 -1.34375 L 5.070312 -4.261719 C 4.851562 -4.703125 4.710938 -5.238281 4.636719 -5.597656 L 2.679688 -5.597656 C 2.621094 -5.285156 2.488281 -4.78125 2.222656 -4.253906 L 0.703125 -1.34375 C 0.433594 -0.832031 0.121094 -0.3125 -0.0976562 0 Z M 2.527344 -2.261719 L 3.261719 -3.6875 C 3.40625 -3.996094 3.503906 -4.253906 3.613281 -4.574219 L 3.6875 -4.574219 C 3.789062 -4.261719 3.894531 -3.988281 4.03125 -3.695312 L 4.773438 -2.261719 Z M 2.527344 -2.261719 "/></g></g></g><g fill="#ffffff" fill-opacity="1"><g transform="translate(230.205438, 57.558622)"><g><path d="M 0.648438 0 L 3.878906 0 C 5.84375 0 7.132812 -1.054688 7.132812 -2.796875 C 7.132812 -4.542969 5.84375 -5.597656 3.878906 -5.597656 L 0.648438 -5.597656 C 0.734375 -5.285156 0.800781 -4.796875 0.800781 -4.253906 L 0.800781 -1.34375 C 0.800781 -0.800781 0.742188 -0.3125 0.648438 0 Z M 2.039062 -1.09375 L 2.039062 -4.507812 L 3.789062 -4.507812 C 4.996094 -4.507812 5.851562 -3.871094 5.851562 -2.796875 C 5.851562 -1.726562 4.996094 -1.09375 3.789062 -1.09375 Z M 2.039062 -1.09375 "/></g></g></g><g fill="#ffffff" fill-opacity="1"><g transform="translate(238.338733, 57.558622)"><g><path d="M 2.679688 0 L 4.574219 0 C 4.621094 -0.320312 4.78125 -0.808594 5.019531 -1.34375 L 6.546875 -4.253906 C 6.789062 -4.796875 7.035156 -5.285156 7.261719 -5.597656 L 5.726562 -5.597656 C 5.683594 -5.371094 5.613281 -5.101562 5.429688 -4.675781 L 4.039062 -1.941406 C 3.902344 -1.640625 3.796875 -1.398438 3.6875 -1.085938 L 3.621094 -1.085938 C 3.511719 -1.382812 3.390625 -1.648438 3.261719 -1.941406 L 1.871094 -4.675781 C 1.679688 -5.101562 1.613281 -5.371094 1.582031 -5.597656 L 0 -5.597656 C 0.214844 -5.285156 0.472656 -4.796875 0.710938 -4.253906 L 2.238281 -1.335938 C 2.421875 -0.894531 2.597656 -0.382812 2.679688 0 Z M 2.679688 0 "/></g></g></g><g fill="#ffffff" fill-opacity="1"><g transform="translate(246.240355, 57.558622)"><g><path d="M -0.0976562 0 L 1.472656 0 C 1.503906 -0.207031 1.640625 -0.472656 1.832031 -0.878906 L 2.0625 -1.3125 L 5.238281 -1.3125 L 5.46875 -0.886719 C 5.699219 -0.472656 5.796875 -0.214844 5.828125 0 L 7.394531 0 C 7.179688 -0.3125 6.867188 -0.824219 6.605469 -1.34375 L 5.070312 -4.261719 C 4.851562 -4.703125 4.710938 -5.238281 4.636719 -5.597656 L 2.679688 -5.597656 C 2.621094 -5.285156 2.488281 -4.78125 2.222656 -4.253906 L 0.703125 -1.34375 C 0.433594 -0.832031 0.121094 -0.3125 -0.0976562 0 Z M 2.527344 -2.261719 L 3.261719 -3.6875 C 3.40625 -3.996094 3.503906 -4.253906 3.613281 -4.574219 L 3.6875 -4.574219 C 3.789062 -4.261719 3.894531 -3.988281 4.03125 -3.695312 L 4.773438 -2.261719 Z M 2.527344 -2.261719 "/></g></g></g><g fill="#ffffff" fill-opacity="1"><g transform="translate(254.181924, 57.558622)"><g><path d="M 0.648438 0 L 2.183594 0 C 2.109375 -0.28125 2.039062 -0.871094 2.039062 -1.429688 L 2.039062 -4.054688 L 2.136719 -4.054688 L 6.019531 0 L 7.164062 0 L 7.164062 -4.253906 C 7.164062 -4.796875 7.21875 -5.285156 7.308594 -5.597656 L 5.773438 -5.597656 C 5.84375 -5.339844 5.917969 -4.828125 5.917969 -4.277344 L 5.917969 -1.671875 L 5.8125 -1.671875 L 2.09375 -5.597656 L 0.648438 -5.597656 C 0.742188 -5.285156 0.800781 -4.796875 0.800781 -4.253906 L 0.800781 -1.34375 C 0.800781 -0.800781 0.734375 -0.3125 0.648438 0 Z M 0.648438 0 "/></g></g></g><g fill="#ffffff" fill-opacity="1"><g transform="translate(262.778575, 57.558622)"><g><path d="M 2.503906 0 L 4.039062 0 C 3.941406 -0.320312 3.894531 -0.800781 3.894531 -1.34375 L 3.894531 -4.507812 L 5.277344 -4.507812 C 5.796875 -4.507812 6.101562 -4.460938 6.363281 -4.375 L 6.117188 -5.597656 L 0.414062 -5.597656 L 0.167969 -4.375 C 0.441406 -4.46875 0.734375 -4.507812 1.253906 -4.507812 L 2.648438 -4.507812 L 2.648438 -1.34375 C 2.648438 -0.800781 2.589844 -0.320312 2.503906 0 Z M 2.503906 0 "/></g></g></g><g fill="#ffffff" fill-opacity="1"><g transform="translate(269.945221, 57.558622)"><g><path d="M 3.75 0.113281 C 5.675781 0.113281 6.765625 -0.855469 6.765625 -2.445312 L 6.765625 -4.253906 C 6.765625 -4.796875 6.820312 -5.285156 6.90625 -5.597656 L 5.371094 -5.597656 C 5.460938 -5.285156 5.515625 -4.773438 5.515625 -4.238281 L 5.515625 -2.628906 C 5.515625 -1.613281 4.796875 -0.976562 3.75 -0.976562 C 2.703125 -0.976562 1.992188 -1.613281 1.992188 -2.628906 L 1.992188 -4.238281 C 1.992188 -4.773438 2.046875 -5.285156 2.125 -5.597656 L 0.601562 -5.597656 C 0.6875 -5.285156 0.742188 -4.796875 0.742188 -4.253906 L 0.742188 -2.445312 C 0.742188 -0.816406 1.878906 0.113281 3.75 0.113281 Z M 3.75 0.113281 "/></g></g></g><g fill="#ffffff" fill-opacity="1"><g transform="translate(278.094497, 57.558622)"><g><path d="M 6.429688 0.121094 C 6.835938 0.121094 7.21875 -0.046875 7.402344 -0.296875 L 7.347656 -1.679688 C 7.203125 -1.335938 7.011719 -1.121094 6.582031 -1.121094 C 5.699219 -1.121094 5.894531 -2.535156 4.214844 -2.535156 L 4.148438 -2.535156 L 4.148438 -2.597656 L 4.636719 -2.597656 C 5.925781 -2.597656 6.796875 -3.230469 6.796875 -4.132812 C 6.796875 -5.078125 5.867188 -5.597656 4.527344 -5.597656 L 0.65625 -5.597656 C 0.742188 -5.285156 0.800781 -4.796875 0.800781 -4.253906 L 0.800781 -1.34375 C 0.800781 -0.800781 0.742188 -0.320312 0.65625 0 L 2.191406 0 C 2.09375 -0.320312 2.046875 -0.75 2.046875 -1.289062 L 2.046875 -2.117188 C 2.230469 -2.175781 2.863281 -2.191406 3.09375 -2.191406 C 5.390625 -2.191406 4.339844 0.121094 6.429688 0.121094 Z M 2.046875 -3.078125 L 2.046875 -4.515625 L 4.398438 -4.515625 C 5.085938 -4.515625 5.550781 -4.246094 5.550781 -3.796875 C 5.550781 -3.335938 5.078125 -3.078125 4.339844 -3.078125 Z M 2.046875 -3.078125 "/></g></g></g><g fill="#ffffff" fill-opacity="1"><g transform="translate(286.227792, 57.558622)"><g><path d="M 0.648438 0 L 6.285156 0 L 6.515625 -1.269531 C 6.285156 -1.144531 5.925781 -1.0625 5.292969 -1.0625 L 2.039062 -1.0625 L 2.039062 -2.285156 L 4.613281 -2.285156 C 4.996094 -2.285156 5.261719 -2.269531 5.453125 -2.238281 L 5.453125 -3.375 C 5.261719 -3.34375 4.996094 -3.324219 4.613281 -3.324219 L 2.039062 -3.324219 L 2.039062 -4.535156 L 5.238281 -4.535156 C 5.789062 -4.535156 6.140625 -4.476562 6.324219 -4.390625 L 6.125 -5.597656 L 0.648438 -5.597656 C 0.734375 -5.285156 0.800781 -4.796875 0.800781 -4.253906 L 0.800781 -1.34375 C 0.800781 -0.800781 0.742188 -0.3125 0.648438 0 Z M 0.648438 0 "/></g></g></g><g fill="#ffffff" fill-opacity="1"><g transform="translate(293.725152, 57.558622)"><g/></g></g><g fill="#ffffff" fill-opacity="1"><g transform="translate(296.61774, 57.558622)"><g/></g></g></svg>